#N canvas 387 160 1094 429 12;
#N canvas 111 25 1079 654 agent 0;
#X obj 628 83 bng 15 250 50 0 empty empty empty 17 7 0 10 -262144 -1
-1;
#X msg 742 47 stop;
#X floatatom 625 325 5 0 0 0 - - -;
#X obj 630 134 metro 100;
#X floatatom 699 110 5 0 0 0 - - -;
#X msg 590 171 100;
#X obj 687 216 metro 100;
#X floatatom 747 187 5 0 0 0 - - -;
#X obj 705 248 r lstuff;
#X floatatom 687 323 5 0 0 0 - - -;
#X obj 687 285 int;
#X floatatom 361 398 5 0 0 0 - - -;
#X obj 361 365 abs;
#X text 633 60 AGENT;
#X obj 625 293 int;
#X obj 767 146 int;
#X obj 768 294 int;
#X obj 666 88 bng 15 250 50 0 empty empty empty 17 7 0 10 -262144 -1
-1;
#X obj 554 39 r maxstuff;
#X floatatom 569 138 5 0 0 0 - - -;
#X obj 569 109 int;
#X obj 554 82 * 0.66;
#X obj 203 33 vsl 15 128 0 100 0 0 empty empty intention -15 -9 0 10
-4032 -1 -1 2921 1;
#X obj 261 33 vsl 15 128 200 10 0 0 empty empty effort -10 -9 0 10
-261234 -1 -1 6684 1;
#X obj 317 33 vsl 15 128 200 10 0 0 empty empty attention -20 -9 0
10 -203904 -1 -1 6684 1;
#X obj 168 44 bng 15 250 50 0 empty empty rl 17 7 0 10 -4032 -1 -1
;
#X obj 461 25 vsl 15 128 100 1 1 0 empty empty empty -20 -9 0 10 -204786
-1 -1 3586 1;
#X obj 100 33 bng 15 250 50 0 empty empty Start 17 7 0 10 -4034 -1
-1;
#X obj 100 63 bng 15 250 50 0 empty empty Continue 17 7 0 10 -262144
-1 -1;
#X obj 100 93 bng 15 250 50 0 empty empty Stop 17 7 0 10 -258113 -1
-1;
#X obj 218 33 vsl 15 128 100 0 0 0 empty empty empty -20 -9 0 10 -257985
-1 -1 9779 1;
#X obj 206 525 vsl 15 128 -1 1 0 1 empty empty PLEASURE -15 -9 0 10
-262144 -1 -1 9241 1;
#X obj 267 525 vsl 15 128 -1 1 0 0 empty empty AROUSAL -15 -9 0 10
-262144 -1 -1 6350 1;
#X obj 327 525 vsl 15 128 -1 1 0 0 empty empty DOMINANCE -15 -9 0 10
-262144 -1 -1 6350 1;
#X floatatom 206 679 5 0 0 0 - - -;
#X floatatom 267 679 5 0 0 0 - - -;
#X floatatom 327 679 5 0 0 0 - - -;
#X obj 30 66 vradio 15 1 0 4 empty empty SPECIES -15 -8 0 10 -262144
-1 -1 0;
#X text 53 566 vowels;
#X obj 45 384 bng 15 250 50 0 empty empty empty 17 7 0 10 -262144 -1
-1;
#X text 31 359 START;
#X text 119 358 STOP;
#X floatatom 239 467 5 0 0 0 - - -;
#X obj 62 30 vsl 15 128 -1 1 0 0 empty empty INDIVIDUAL -20 -9 0 10
-228856 -1 -1 6350 1;
#X obj 385 525 vsl 15 128 -1 1 0 0 empty empty SIGNAL -10 -9 0 10 -262144
-1 -1 6350 1;
#X floatatom 142 679 5 0 0 0 - - -;
#X floatatom 385 679 5 0 0 0 - - -;
#X msg 130 381 stop;
#X text 54 520 tone;
#X text 53 536 chord;
#X text 52 551 stridulate;
#X obj 100 117 output~;
#X msg 239 433 0;
#X obj 263 355 loadbang;
#X obj 312 278 / -50;
#X obj 312 309 + 1;
#X obj 257 279 / -90;
#X obj 201 278 / -90;
#X obj 201 310 + 1.1;
#X obj 257 310 + 1.1;
#X floatatom 625 402 5 0 0 0 - - -;
#X obj 549 471 spigot;
#X obj 649 470 spigot;
#X obj 549 499 bng 15 250 50 0 empty empty empty 17 7 0 10 -262144
-1 -1;
#X obj 649 498 bng 15 250 50 0 empty empty empty 17 7 0 10 -262144
-1 -1;
#X obj 588 437 > 0;
#X obj 688 438 < 0;
#X obj 549 521 s move-rl;
#X obj 649 520 s move-lr;
#X obj 168 83 bng 15 250 50 0 empty empty lr 17 7 0 10 -257985 -1 -1
;
#N canvas 107 57 1059 950 ag_voc 0;
#X obj 549 73 inlet;
#X obj 713 73 inlet;
#X obj 792 73 inlet;
#X obj 73 73 inlet;
#X text 537 44 PLEASURE;
#X text 707 44 AROUSAL;
#X text 778 44 DOMINANCE;
#X floatatom 150 157 5 0 0 0 - - -;
#X floatatom 549 157 5 0 0 0 - - -;
#X floatatom 713 157 5 0 0 0 - - -;
#X floatatom 792 157 5 0 0 0 - - -;
#X floatatom 57 225 5 0 0 0 - - -;
#X floatatom 107 225 5 0 0 0 - - -;
#X floatatom 157 225 5 0 0 0 - - -;
#X obj 6 198 == 0;
#X floatatom 6 225 5 0 0 0 - - -;
#X obj 57 198 == 1;
#X obj 107 198 == 2;
#X obj 157 198 == 3;
#X obj 11 815 *~;
#X obj 350 71 inlet;
#X obj 973 73 inlet;
#X floatatom 350 155 5 0 0 0 - - -;
#X floatatom 973 157 5 0 0 0 - - -;
#X obj 350 226 + 2000;
#X obj 350 200 * 1500;
#X floatatom 350 268 5 0 0 0 - - -;
#X floatatom 713 269 5 0 0 0 - - -;
#X floatatom 871 269 5 0 0 0 - - -;
#X floatatom 792 269 5 0 0 0 - - -;
#X obj 792 225 + 0.5;
#X obj 576 462 clip~ 0 1;
#X obj 578 405 sig~;
#X obj 577 433 osc~;
#X obj 406 607 *~;
#X floatatom 458 783 5 0 0 0 - - -;
#X obj 407 810 -;
#X floatatom 407 840 5 0 0 0 - - -;
#X obj 407 784 bng 15 250 50 0 empty empty empty 17 7 0 10 -262144
-1 -1;
#X obj 421 898 *~;
#X obj 459 840 /;
#X msg 459 809 1;
#X floatatom 459 870 5 0 0 0 - - -;
#X obj 389 866 clip~;
#X obj 404 468 sig~;
#X obj 405 498 osc~;
#X obj 66 815 *~;
#X obj 120 815 *~;
#X obj 175 815 *~;
#X obj 97 862 *~;
#X obj 549 102 min 1;
#X obj 549 128 max -1;
#X obj 713 102 min 1;
#X obj 713 128 max -1;
#X obj 792 102 min 1;
#X obj 792 128 max -1;
#X obj 350 100 min 1;
#X obj 350 126 max -1;
#X obj 973 102 min 1;
#X obj 973 128 max -1;
#X obj 98 891 outlet~;
#X text 334 42 INDIVIDUAL;
#X text 969 44 SIGNAL;
#X obj 792 199 * -0.49;
#X obj 73 115 route stop;
#X msg 73 156 0;
#X obj 817 841 outlet;
#X text 860 177 amplitude;
#X text 775 177 distortion;
#X text 716 177 rate;
#X text 336 178 mean pitch;
#X obj 514 352 /;
#X floatatom 514 378 5 0 0 0 - - -;
#X obj 477 403 metro;
#X obj 453 438 int;
#X obj 594 570 bng 15 250 50 0 empty empty empty 17 7 0 10 -262144
-1 -1;
#X obj 830 566 bng 15 250 50 0 empty empty empty 17 7 0 10 -262144
-1 -1;
#X obj 612 539 threshold~ 0.01 10 0.01 10;
#X msg 514 324 5;
#X floatatom 549 270 5 0 0 0 - - -;
#X obj 549 226 + 0;
#X obj 549 199 * 10;
#X obj 713 224 + 5;
#X obj 713 198 * 4.8;
#X obj 612 841 outlet;
#X text 598 863 BEGINNING;
#X text 825 864 END;
#X text 102 917 AUDIO;
#X obj 404 438 +;
#X text 545 177 chirp;
#X floatatom 973 269 5 0 0 0 - - -;
#X text 942 177 pitch variation;
#X text 229 224 centre value:;
#X text 253 199 +/- range:;
#X obj 973 224 + 0;
#X obj 350 332 +;
#X obj 973 198 * 1000;
#X obj 331 468 sig~;
#X obj 332 498 osc~;
#X obj 269 468 sig~;
#X obj 270 498 osc~;
#X obj 299 553 +~;
#X obj 269 439 * 1.5;
#X obj 300 584 *~;
#X obj 405 551 +~;
#X obj 331 438 * 1.2;
#X floatatom 468 270 5 0 0 0 - - -;
#X text 447 177 major-minor;
#X obj 468 226 + 1.225;
#X obj 468 199 * 0.025;
#X obj 406 525 *~ 0.1;
#X obj 269 526 *~ 0.1;
#X obj 331 526 *~ 0.1;
#X text 68 44 SPECIES;
#X obj 871 198 * 0.1;
#X obj 871 224 + 0.9;
#N canvas 1162 345 720 726 squeak 0;
#X obj 26 142 phasor~;
#X floatatom 125 -7 5 0 0 0 - - -;
#X obj 128 -32 hsl 128 15 2500 3500 0 0 empty empty base_frequency
-2 -8 0 10 -262144 -1 -1 6350 1;
#X obj 27 331 lop~ 16000;
#X obj 28 306 hip~ 2000;
#X obj 27 280 rzero~ 1;
#X obj 311 -78 bng 15 250 50 0 empty empty empty 17 7 0 10 -262144
-1 -1;
#X obj 28 360 *~;
#X msg 224 125 1 1;
#X msg 259 125 0 1;
#X obj 224 168 line~;
#X obj 26 52 cos~;
#X obj 25 19 phasor~;
#X obj 25 114 +~ 3000;
#X obj 26 86 *~ 900;
#X msg 64 -10 0.7854;
#X obj 127 -92 hsl 128 15 100 1500 0 0 empty empty frequency_range
-2 -8 0 10 -262144 -1 -1 9241 1;
#X floatatom 124 -66 5 0 0 0 - - -;
#X obj 311 47 delay 10;
#X obj 403 -74 hsl 128 15 30 140 0 0 empty empty syllable_duration
-2 -8 0 10 -262144 -1 -1 5773 1;
#X floatatom 400 -44 5 0 0 0 - - -;
#X obj 400 28 /;
#X floatatom 400 82 5 0 0 0 - - -;
#X obj 400 -1 swap 0.5;
#X obj 400 56 * 1000;
#X text 99 305 <= bandlimit;
#X text 97 329 <= bandlimit;
#X text 66 359 <= modulate energy;
#X text 86 280 <= equalise spectrum;
#X text 78 141 <= generate harmonics;
#X text 82 112 <= base frequency;
#X text 79 85 <= frequency range;
#X text 65 51 <= modulate frequency;
#X text 78 19 <= generate syllable;
#X obj 25 -10 sig~;
#X obj 311 8 delay;
#X obj 311 85 delay;
#X obj 311 150 delay 100;
#X obj 310 514 s sq;
#X text 330 -80 <= SQUEAK;
#X obj 311 -110 r sq;
#X obj 27 252 +~;
#X obj 27 225 *~;
#X obj 59 198 noise~;
#X obj 58 225 *~;
#X obj 110 198 hsl 128 15 0 1 0 0 empty empty voiced/unvoiced -2 -8
0 10 -262144 -1 -1 0 1;
#X obj 107 163 r vu;
#X obj 107 225 swap 1;
#X obj 107 251 -;
#X text 437 -44 <= syllable duration (msecs);
#X text 436 81 <= syllable frequency (Hz);
#X obj 27 402 outlet~;
#X obj 400 -110 inlet;
#X obj 49 -130 inlet;
#X obj 123 -131 inlet;
#X obj 454 264 loadbang;
#X msg 452 305 0;
#X obj 451 337 s vu;
#X obj 505 336 s sq;
#X obj 372 120 + 100;
#X connect 0 0 42 0;
#X connect 1 0 13 1;
#X connect 2 0 1 0;
#X connect 3 0 7 0;
#X connect 4 0 3 0;
#X connect 5 0 4 0;
#X connect 6 0 8 0;
#X connect 6 0 35 0;
#X connect 7 0 51 0;
#X connect 8 0 10 0;
#X connect 8 0 15 0;
#X connect 9 0 10 0;
#X connect 10 0 7 1;
#X connect 11 0 14 0;
#X connect 12 0 11 0;
#X connect 13 0 0 0;
#X connect 14 0 13 0;
#X connect 15 0 12 1;
#X connect 16 0 17 0;
#X connect 17 0 14 1;
#X connect 18 0 8 0;
#X connect 18 0 36 0;
#X connect 19 0 20 0;
#X connect 20 0 23 0;
#X connect 20 0 35 1;
#X connect 20 0 36 1;
#X connect 20 0 59 0;
#X connect 21 0 24 0;
#X connect 22 0 34 0;
#X connect 23 0 21 0;
#X connect 23 1 21 1;
#X connect 24 0 22 0;
#X connect 34 0 12 0;
#X connect 35 0 9 0;
#X connect 35 0 18 0;
#X connect 36 0 9 0;
#X connect 36 0 37 0;
#X connect 37 0 38 0;
#X connect 40 0 6 0;
#X connect 41 0 5 0;
#X connect 42 0 41 0;
#X connect 43 0 44 0;
#X connect 44 0 41 1;
#X connect 45 0 44 1;
#X connect 45 0 47 0;
#X connect 46 0 45 0;
#X connect 47 0 48 0;
#X connect 47 1 48 1;
#X connect 48 0 42 1;
#X connect 52 0 19 0;
#X connect 53 0 2 0;
#X connect 54 0 16 0;
#X connect 55 0 56 0;
#X connect 55 0 58 0;
#X connect 56 0 57 0;
#X connect 59 0 37 1;
#X restore 214 648 pd squeak;
#X floatatom 665 269 5 0 0 0 - - -;
#X obj 665 224 + 80;
#X obj 665 198 * -50;
#X floatatom 597 270 5 0 0 0 - - -;
#X obj 597 199 * 700;
#X obj 597 226 + 800;
#X floatatom 404 268 5 0 0 0 - - -;
#X obj 404 226 + 3000;
#X obj 404 200 * 500;
#X connect 0 0 50 0;
#X connect 1 0 52 0;
#X connect 2 0 54 0;
#X connect 3 0 64 0;
#X connect 7 0 14 0;
#X connect 7 0 16 0;
#X connect 7 0 17 0;
#X connect 7 0 18 0;
#X connect 8 0 81 0;
#X connect 8 0 109 0;
#X connect 8 0 121 0;
#X connect 9 0 83 0;
#X connect 9 0 119 0;
#X connect 10 0 63 0;
#X connect 10 0 114 0;
#X connect 11 0 46 1;
#X connect 11 0 103 1;
#X connect 12 0 47 1;
#X connect 13 0 48 1;
#X connect 14 0 15 0;
#X connect 15 0 19 1;
#X connect 16 0 11 0;
#X connect 17 0 12 0;
#X connect 18 0 13 0;
#X connect 19 0 43 0;
#X connect 20 0 56 0;
#X connect 21 0 58 0;
#X connect 22 0 25 0;
#X connect 22 0 125 0;
#X connect 23 0 96 0;
#X connect 24 0 26 0;
#X connect 25 0 24 0;
#X connect 26 0 73 0;
#X connect 26 0 95 0;
#X connect 27 0 32 0;
#X connect 27 0 71 1;
#X connect 27 0 78 0;
#X connect 28 0 49 1;
#X connect 29 0 38 0;
#X connect 29 0 35 0;
#X connect 30 0 29 0;
#X connect 31 0 34 1;
#X connect 31 0 77 0;
#X connect 32 0 33 0;
#X connect 33 0 31 0;
#X connect 34 0 46 0;
#X connect 34 0 19 0;
#X connect 35 0 36 1;
#X connect 35 0 40 1;
#X connect 35 0 43 2;
#X connect 36 0 37 0;
#X connect 37 0 43 1;
#X connect 38 0 36 0;
#X connect 38 0 41 0;
#X connect 39 0 49 0;
#X connect 40 0 42 0;
#X connect 41 0 40 0;
#X connect 42 0 39 1;
#X connect 43 0 39 0;
#X connect 44 0 45 0;
#X connect 45 0 110 0;
#X connect 46 0 43 0;
#X connect 47 0 43 0;
#X connect 48 0 43 0;
#X connect 49 0 60 0;
#X connect 50 0 51 0;
#X connect 51 0 8 0;
#X connect 52 0 53 0;
#X connect 53 0 9 0;
#X connect 54 0 55 0;
#X connect 55 0 10 0;
#X connect 56 0 57 0;
#X connect 57 0 22 0;
#X connect 58 0 59 0;
#X connect 59 0 23 0;
#X connect 63 0 30 0;
#X connect 64 0 65 0;
#X connect 64 1 7 0;
#X connect 65 0 15 0;
#X connect 65 0 11 0;
#X connect 65 0 12 0;
#X connect 65 0 13 0;
#X connect 71 0 72 0;
#X connect 72 0 73 1;
#X connect 73 0 74 0;
#X connect 74 0 88 0;
#X connect 77 0 75 0;
#X connect 77 0 84 0;
#X connect 77 0 26 0;
#X connect 77 1 66 0;
#X connect 77 1 76 0;
#X connect 78 0 71 0;
#X connect 79 0 88 1;
#X connect 80 0 79 0;
#X connect 81 0 80 0;
#X connect 82 0 27 0;
#X connect 83 0 82 0;
#X connect 88 0 74 1;
#X connect 88 0 44 0;
#X connect 88 0 102 0;
#X connect 88 0 105 0;
#X connect 90 0 95 1;
#X connect 94 0 90 0;
#X connect 95 0 74 0;
#X connect 96 0 94 0;
#X connect 97 0 98 0;
#X connect 98 0 112 0;
#X connect 99 0 100 0;
#X connect 100 0 111 0;
#X connect 101 0 103 0;
#X connect 102 0 99 0;
#X connect 103 0 104 1;
#X connect 104 0 34 0;
#X connect 105 0 97 0;
#X connect 106 0 105 1;
#X connect 108 0 106 0;
#X connect 109 0 108 0;
#X connect 110 0 104 0;
#X connect 111 0 101 0;
#X connect 112 0 101 1;
#X connect 114 0 115 0;
#X connect 115 0 28 0;
#X connect 116 0 47 0;
#X connect 117 0 116 2;
#X connect 118 0 117 0;
#X connect 119 0 118 0;
#X connect 120 0 116 1;
#X connect 121 0 122 0;
#X connect 122 0 120 0;
#X connect 123 0 116 0;
#X connect 124 0 123 0;
#X connect 125 0 124 0;
#X restore 130 771 pd ag_voc;
#X msg 17 296 0;
#X obj 8 255 loadbang;
#X obj 625 365 pid-controller 1 0 0;
#X obj 374 33 vsl 15 128 1000 10 1 0 empty empty compliance -20 -9
0 10 -232576 -1 -1 12700 1;
#X floatatom 993 206 5 0 0 0 - - -;
#X obj 993 175 int;
#X obj 918 208 bng 15 250 50 0 empty empty empty 17 7 0 10 -262144
-1 -1;
#X msg 861 233 10000;
#X obj 919 312 bng 15 250 50 0 empty empty empty 17 7 0 10 -262144
-1 -1;
#X floatatom 968 394 5 0 0 0 - - -;
#X obj 937 331 r lstuff;
#X floatatom 919 396 5 0 0 0 - - -;
#X obj 919 363 int;
#X obj 919 429 -;
#X floatatom 919 485 5 0 0 0 - - -;
#X obj 919 457 clip -1 1;
#X obj 919 515 +;
#X floatatom 919 542 5 0 0 0 - - -;
#X obj 361 430 average 100;
#X text 421 25 HAPPY;
#X text 436 138 SAD;
#X obj 919 281 spigot;
#X obj 919 232 metro 1000;
#X obj 958 257 < 1000;
#X connect 0 0 3 0;
#X connect 0 0 5 0;
#X connect 0 0 6 0;
#X connect 0 0 77 0;
#X connect 0 0 78 0;
#X connect 1 0 3 0;
#X connect 1 0 6 0;
#X connect 1 0 93 0;
#X connect 2 0 73 0;
#X connect 2 0 80 0;
#X connect 3 0 2 0;
#X connect 3 0 61 0;
#X connect 3 0 62 0;
#X connect 4 0 3 1;
#X connect 5 0 23 0;
#X connect 5 0 24 0;
#X connect 6 0 10 0;
#X connect 7 0 6 1;
#X connect 8 0 10 1;
#X connect 9 0 73 1;
#X connect 10 0 9 0;
#X connect 11 0 89 0;
#X connect 12 0 11 0;
#X connect 14 0 2 0;
#X connect 15 0 4 0;
#X connect 16 0 7 0;
#X connect 17 0 3 0;
#X connect 17 0 6 0;
#X connect 17 0 77 0;
#X connect 18 0 21 0;
#X connect 19 0 2 0;
#X connect 19 0 22 0;
#X connect 20 0 19 0;
#X connect 21 0 20 0;
#X connect 22 0 14 0;
#X connect 22 0 30 0;
#X connect 23 0 15 0;
#X connect 23 0 57 0;
#X connect 24 0 16 0;
#X connect 24 0 56 0;
#X connect 26 0 54 0;
#X connect 27 0 0 0;
#X connect 27 0 39 0;
#X connect 28 0 17 0;
#X connect 29 0 1 0;
#X connect 29 0 47 0;
#X connect 31 0 34 0;
#X connect 32 0 35 0;
#X connect 33 0 36 0;
#X connect 34 0 70 2;
#X connect 35 0 70 3;
#X connect 36 0 70 4;
#X connect 37 0 70 0;
#X connect 39 0 42 0;
#X connect 39 0 52 0;
#X connect 39 0 70 0;
#X connect 42 0 31 0;
#X connect 42 0 32 0;
#X connect 42 0 33 0;
#X connect 42 0 43 0;
#X connect 42 0 44 0;
#X connect 43 0 45 0;
#X connect 44 0 46 0;
#X connect 45 0 70 1;
#X connect 46 0 70 5;
#X connect 47 0 70 0;
#X connect 52 0 42 0;
#X connect 53 0 52 0;
#X connect 53 0 39 0;
#X connect 54 0 55 0;
#X connect 55 0 31 0;
#X connect 56 0 59 0;
#X connect 57 0 58 0;
#X connect 58 0 33 0;
#X connect 59 0 32 0;
#X connect 60 0 65 0;
#X connect 60 0 66 0;
#X connect 60 0 12 0;
#X connect 61 0 63 0;
#X connect 62 0 64 0;
#X connect 63 0 67 0;
#X connect 63 0 25 0;
#X connect 64 0 68 0;
#X connect 64 0 69 0;
#X connect 65 0 61 1;
#X connect 66 0 62 1;
#X connect 70 0 51 0;
#X connect 70 0 51 1;
#X connect 71 0 37 0;
#X connect 72 0 71 0;
#X connect 73 0 60 0;
#X connect 74 0 76 0;
#X connect 75 0 93 1;
#X connect 75 0 94 0;
#X connect 76 0 75 0;
#X connect 77 0 93 0;
#X connect 78 0 74 0;
#X connect 79 0 83 0;
#X connect 80 0 84 1;
#X connect 80 0 87 1;
#X connect 81 0 83 1;
#X connect 82 0 84 0;
#X connect 83 0 82 0;
#X connect 84 0 86 0;
#X connect 85 0 87 0;
#X connect 86 0 85 0;
#X connect 87 0 88 0;
#X connect 88 0 22 0;
#X connect 89 0 26 0;
#X connect 92 0 79 0;
#X connect 93 0 92 0;
#X connect 94 0 92 1;
#X coords 0 -1 1 1 480 160 2 10 10;
#X restore 575 16 pd agent;
#N canvas 961 181 363 488 ramp 0;
#X obj 136 110 bng 15 250 50 0 empty empty empty 17 7 0 10 -262144
-1 -1;
#X msg 176 107 stop;
#X obj 64 423 s move-rl;
#X obj 156 422 s move-lr;
#X floatatom 228 183 5 0 0 0 - - -;
#X text 133 80 ENV RAMP;
#X obj 124 197 int;
#X obj 178 197 + 1;
#X floatatom 124 229 5 0 0 0 - - -;
#X obj 64 397 bng 15 250 50 0 empty empty empty 17 7 0 10 -262144 -1
-1;
#X obj 156 395 bng 15 250 50 0 empty empty empty 17 7 0 10 -262144
-1 -1;
#X obj 236 259 r maxstuff;
#X floatatom 236 286 5 0 0 0 - - -;
#X msg 78 290 1;
#X msg 175 289 -1;
#X obj 125 259 select 100;
#X obj 64 366 spigot;
#X obj 142 365 spigot;
#X msg 33 327 0;
#X msg 107 327 0;
#X msg 156 328 1;
#X obj 35 259 select 0;
#X obj 136 153 metro 100;
#X msg 228 153 100;
#X obj 246 212 int;
#X obj 58 57 vsl 15 128 200 10 0 0 empty empty Rate -5 -9 0 10 -262144
-1 -1 12700 1;
#X obj 24 83 bng 15 250 50 0 empty empty empty 17 7 0 10 -4034 -1 -1
;
#X text 11 63 Start;
#X obj 24 132 bng 15 250 50 0 empty empty empty 17 7 0 10 -258113 -1
-1;
#X text 16 112 Stop;
#X obj 88 108 bng 15 250 50 0 empty empty empty 17 7 0 10 -262144 -1
-1;
#X obj 228 109 loadbang;
#X connect 0 0 23 0;
#X connect 0 0 22 0;
#X connect 1 0 22 0;
#X connect 4 0 22 1;
#X connect 6 0 7 0;
#X connect 6 0 8 0;
#X connect 7 0 6 1;
#X connect 8 0 15 0;
#X connect 8 0 21 0;
#X connect 9 0 2 0;
#X connect 9 0 30 0;
#X connect 10 0 3 0;
#X connect 10 0 30 0;
#X connect 11 0 12 0;
#X connect 12 0 15 1;
#X connect 13 0 7 1;
#X connect 13 0 16 1;
#X connect 14 0 7 1;
#X connect 15 0 14 0;
#X connect 15 0 19 0;
#X connect 15 0 20 0;
#X connect 16 0 9 0;
#X connect 17 0 10 0;
#X connect 18 0 17 1;
#X connect 19 0 16 1;
#X connect 20 0 17 1;
#X connect 21 0 13 0;
#X connect 21 0 18 0;
#X connect 22 0 6 0;
#X connect 22 0 16 0;
#X connect 22 0 17 0;
#X connect 23 0 25 0;
#X connect 24 0 4 0;
#X connect 25 0 24 0;
#X connect 26 0 0 0;
#X connect 28 0 1 0;
#X connect 31 0 23 0;
#X coords 0 -1 1 1 100 200 1 10 10;
#X restore 452 16 pd ramp;
#N canvas 869 180 383 259 noise 0;
#X obj 190 36 bng 15 250 50 0 empty empty empty 17 7 0 10 -262144 -1
-1;
#X msg 230 33 stop;
#X obj 155 206 s move-rl;
#X obj 259 206 s move-lr;
#X floatatom 293 118 5 0 0 0 - - -;
#X text 187 6 ENV NOISE;
#X obj 59 56 vsl 15 128 200 10 0 0 empty empty Rate -5 -9 0 10 -262144
-1 -1 6684 1;
#X obj 190 116 random 1001;
#X obj 190 153 moses 500;
#X obj 259 182 bng 15 250 50 0 empty empty empty 17 7 0 10 -262144
-1 -1;
#X obj 170 183 bng 15 250 50 0 empty empty empty 17 7 0 10 -262144
-1 -1;
#X obj 190 79 metro 100;
#X msg 290 80 100;
#X obj 310 140 int;
#X obj 25 82 bng 15 250 50 0 empty empty empty 17 7 0 10 -4034 -1 -1
;
#X text 12 62 Start;
#X obj 25 131 bng 15 250 50 0 empty empty empty 17 7 0 10 -258113 -1
-1;
#X text 17 111 Stop;
#X obj 89 107 bng 15 250 50 0 empty empty empty 17 7 0 10 -262144 -1
-1;
#X obj 290 42 loadbang;
#X connect 0 0 12 0;
#X connect 0 0 11 0;
#X connect 1 0 11 0;
#X connect 4 0 11 1;
#X connect 6 0 13 0;
#X connect 7 0 8 0;
#X connect 8 0 10 0;
#X connect 8 1 9 0;
#X connect 9 0 3 0;
#X connect 9 0 18 0;
#X connect 10 0 2 0;
#X connect 10 0 18 0;
#X connect 11 0 7 0;
#X connect 12 0 6 0;
#X connect 13 0 4 0;
#X connect 14 0 0 0;
#X connect 16 0 1 0;
#X connect 19 0 12 0;
#X coords 0 -1 1 1 100 200 1 10 10;
#X restore 319 16 pd noise;
#N canvas 733 99 1059 772 environment 0;
#X obj 414 168 bng 15 250 50 0 empty empty empty 17 7 0 10 -262144
-1 -1;
#X obj 414 233 / 2;
#X floatatom 414 268 5 0 0 0 - - -;
#X text 386 148 initialise;
#X obj 289 392 bng 15 250 50 0 empty empty empty 17 7 0 10 -262144
-1 -1;
#X obj 351 314 s lstuff;
#X obj 447 313 s rstuff;
#X obj 351 358 r lstuff;
#X floatatom 350 388 5 0 0 0 - - -;
#X obj 289 453 +;
#X floatatom 290 491 5 0 0 0 - - -;
#X obj 291 524 + 1;
#X floatatom 334 578 5 0 0 0 - - -;
#X obj 334 662 s lstuff;
#X text 221 389 move-rl;
#X floatatom 446 388 5 0 0 0 - - -;
#X obj 385 453 +;
#X floatatom 386 491 5 0 0 0 - - -;
#X floatatom 492 578 5 0 0 0 - - -;
#X obj 447 357 r rstuff;
#X obj 492 660 s rstuff;
#X obj 386 524 - 1;
#X obj 457 453 +;
#X floatatom 458 491 5 0 0 0 - - -;
#X obj 553 453 +;
#X floatatom 554 491 5 0 0 0 - - -;
#X obj 553 391 bng 15 250 50 0 empty empty empty 17 7 0 10 -262144
-1 -1;
#X text 575 386 move-lr;
#X obj 457 524 - 1;
#X obj 554 523 + 1;
#X obj 262 358 r move-rl;
#X obj 552 357 r move-lr;
#X obj 262 228 bng 15 250 50 0 empty empty empty 17 7 0 10 -262144
-1 -1;
#X obj 262 315 s move-rl;
#X obj 550 226 bng 15 250 50 0 empty empty empty 17 7 0 10 -262144
-1 -1;
#X obj 549 313 s move-lr;
#X text 211 197 test move-rl;
#X text 515 199 test move-lr;
#X obj 452 235 s maxstuff;
#X obj 334 632 max 0;
#X obj 492 633 max 0;
#X obj 392 577 r maxstuff;
#X obj 493 605 min;
#X obj 334 604 min;
#X obj 742 406 r lstuff;
#X obj 819 406 r maxstuff;
#X floatatom 742 436 5 0 0 0 - - -;
#X floatatom 819 437 5 0 0 0 - - -;
#X obj 771 467 /;
#X obj 771 557 osc~;
#X obj 771 527 + 1000;
#X obj 771 498 * 4000;
#X msg 414 197 100;
#X floatatom 730 284 5 0 0 0 - - -;
#X floatatom 880 261 5 0 0 0 - - -;
#X obj 880 232 int;
#X obj 858 171 bng 15 250 50 0 empty empty empty 17 7 0 10 -262144
-1 -1;
#X msg 889 169 stop;
#X obj 927 231 + 1;
#X msg 824 232 0;
#X obj 756 240 bng 15 250 50 0 empty empty empty 17 7 0 10 -262144
-1 -1;
#X obj 729 208 r lstuff;
#X obj 844 293 select 400;
#X obj 730 329 tabwrite graph;
#X obj 879 205 metro 10;
#X obj 35 56 bng 15 250 50 0 empty empty empty 17 7 0 10 -4032 -1 -1
;
#X obj 85 57 bng 15 250 50 0 empty empty empty 17 7 0 10 -257985 -1
-1;
#X text 32 35 rl;
#X text 83 35 lr;
#X obj 25 245 output~;
#X obj 35 98 vsl 15 128 0 100 0 0 empty empty lstuff -10 -9 0 10 -4032
-1 -1 11049 1;
#X obj 85 98 vsl 15 128 0 100 0 0 empty empty rstuff -10 -9 0 10 -257985
-1 -1 1651 1;
#X obj 414 88 loadbang;
#X connect 0 0 52 0;
#X connect 0 0 32 0;
#X connect 0 0 34 0;
#X connect 0 0 56 0;
#X connect 1 0 2 0;
#X connect 2 0 5 0;
#X connect 2 0 6 0;
#X connect 4 0 9 0;
#X connect 4 0 16 0;
#X connect 7 0 8 0;
#X connect 8 0 9 1;
#X connect 8 0 22 1;
#X connect 9 0 10 0;
#X connect 10 0 11 0;
#X connect 11 0 12 0;
#X connect 12 0 43 0;
#X connect 15 0 16 1;
#X connect 15 0 24 1;
#X connect 16 0 17 0;
#X connect 17 0 21 0;
#X connect 18 0 42 0;
#X connect 19 0 15 0;
#X connect 21 0 18 0;
#X connect 22 0 23 0;
#X connect 23 0 28 0;
#X connect 24 0 25 0;
#X connect 25 0 29 0;
#X connect 26 0 22 0;
#X connect 26 0 24 0;
#X connect 28 0 12 0;
#X connect 29 0 18 0;
#X connect 30 0 4 0;
#X connect 31 0 26 0;
#X connect 32 0 33 0;
#X connect 34 0 35 0;
#X connect 39 0 13 0;
#X connect 39 0 70 0;
#X connect 40 0 20 0;
#X connect 40 0 71 0;
#X connect 41 0 42 1;
#X connect 41 0 43 1;
#X connect 42 0 40 0;
#X connect 43 0 39 0;
#X connect 44 0 46 0;
#X connect 45 0 47 0;
#X connect 46 0 48 0;
#X connect 47 0 48 1;
#X connect 48 0 51 0;
#X connect 49 0 69 0;
#X connect 49 0 69 1;
#X connect 50 0 49 0;
#X connect 51 0 50 0;
#X connect 52 0 1 0;
#X connect 52 0 38 0;
#X connect 53 0 63 0;
#X connect 54 0 60 0;
#X connect 54 0 62 0;
#X connect 54 0 63 1;
#X connect 55 0 58 0;
#X connect 55 0 54 0;
#X connect 56 0 59 0;
#X connect 56 0 64 0;
#X connect 57 0 64 0;
#X connect 58 0 55 1;
#X connect 59 0 55 0;
#X connect 60 0 53 0;
#X connect 61 0 53 0;
#X connect 62 0 59 0;
#X connect 64 0 55 0;
#X connect 65 0 32 0;
#X connect 66 0 34 0;
#X connect 72 0 0 0;
#X coords 0 -1 1 1 120 300 1 10 10;
#X restore 18 40 pd environment;
#N canvas 0 25 450 300 (subpatch) 0;
#X array graph 400 float 0;
#X coords 0 100 399 0 400 140 1;
#X restore 152 235 graph;
#N canvas 1099 339 445 471 disturbance 0;
#X obj 190 36 bng 15 250 50 0 empty empty empty 17 7 0 10 -262144 -1
-1;
#X msg 230 33 stop;
#X floatatom 293 118 5 0 0 0 - - -;
#X text 187 6 ENV NOISE;
#X obj 98 56 vsl 15 128 200 10 0 0 empty empty Rate -5 -9 0 10 -262144
-1 -1 6684 1;
#X obj 190 79 metro 100;
#X msg 290 80 100;
#X obj 310 140 int;
#X obj 25 82 bng 15 250 50 0 empty empty empty 17 7 0 10 -4034 -1 -1
;
#X text 12 62 Start;
#X obj 25 131 bng 15 250 50 0 empty empty empty 17 7 0 10 -258113 -1
-1;
#X text 17 111 Stop;
#X obj 290 42 loadbang;
#X obj 59 56 vsl 15 128 0 100 0 0 empty empty lstuff -10 -9 0 10 -4032
-1 -1 0 1;
#X obj 264 178 r lstuff;
#X floatatom 216 209 5 0 0 0 - - -;
#X floatatom 264 295 5 0 0 0 - - -;
#X obj 188 364 spigot;
#X obj 270 363 spigot;
#X obj 188 392 bng 15 250 50 0 empty empty empty 17 7 0 10 -262144
-1 -1;
#X obj 270 391 bng 15 250 50 0 empty empty empty 17 7 0 10 -262144
-1 -1;
#X obj 227 330 > 0;
#X obj 309 331 < 0;
#X obj 188 414 s move-rl;
#X obj 270 413 s move-lr;
#X obj 264 265 -;
#X obj 264 238 t b f;
#X floatatom 264 209 5 0 0 0 - - -;
#X obj 216 183 i;
#X obj 127 111 bng 15 250 50 0 empty empty empty 17 7 0 10 -262144
-1 -1;
#X connect 0 0 6 0;
#X connect 0 0 5 0;
#X connect 1 0 5 0;
#X connect 2 0 5 1;
#X connect 4 0 7 0;
#X connect 5 0 17 0;
#X connect 5 0 18 0;
#X connect 6 0 4 0;
#X connect 7 0 2 0;
#X connect 8 0 0 0;
#X connect 10 0 1 0;
#X connect 12 0 6 0;
#X connect 13 0 28 0;
#X connect 14 0 27 0;
#X connect 15 0 25 0;
#X connect 16 0 21 0;
#X connect 16 0 22 0;
#X connect 17 0 19 0;
#X connect 18 0 20 0;
#X connect 19 0 23 0;
#X connect 19 0 29 0;
#X connect 20 0 24 0;
#X connect 20 0 29 0;
#X connect 21 0 17 1;
#X connect 22 0 18 1;
#X connect 25 0 16 0;
#X connect 26 0 25 0;
#X connect 26 1 25 1;
#X connect 27 0 26 0;
#X connect 28 0 15 0;
#X coords 0 -1 1 1 140 200 1 10 10;
#X restore 153 16 pd disturbance;
#X coords 0 0 1 1 85 60 0;
