#N canvas 94 390 827 609 10;
#X text 362 552 Manipulated Variable;
#X obj 292 28 inlet;
#X text 301 1 Kp;
#X obj 444 28 inlet;
#X obj 611 28 inlet;
#X floatatom 292 55 5 0 0 0 - - -;
#X floatatom 444 55 5 0 0 0 - - -;
#X floatatom 611 56 5 0 0 0 - - -;
#X obj 47 28 inlet;
#X obj 165 28 inlet;
#X obj 47 105 -;
#X obj 392 412 +;
#X obj 392 468 +;
#X obj 392 528 outlet;
#X floatatom 47 57 5 0 0 0 - - -;
#X floatatom 165 56 5 0 0 0 - - -;
#X floatatom 47 132 5 0 0 0 - - -;
#X obj 68 81 t b f;
#X floatatom 392 499 5 0 0 0 - - -;
#X obj 413 384 t b f;
#X obj 413 440 t b f;
#X obj 568 194 t f b;
#X obj 595 221 f;
#X obj 580 249 -;
#X obj 580 315 *;
#X obj 611 249 t b f;
#X floatatom 580 343 5 0 0 0 - - -;
#X obj 720 82 loadbang;
#X obj 685 122 f \$1;
#X obj 720 122 f \$2;
#X obj 756 122 f \$3;
#X text 451 1 Ki;
#X text 616 1 Kd;
#X floatatom 580 279 5 0 0 0 - - -;
#X text 620 341 <= Kd*DRV;
#X text 620 277 <= derivative (DRV);
#X text 24 1 Setpoint (SP);
#X text 128 1 Process Variable (PV);
#X obj 428 221 f;
#X obj 413 315 *;
#X obj 444 249 t b f;
#X floatatom 413 343 5 0 0 0 - - -;
#X floatatom 413 279 5 0 0 0 - - -;
#X obj 413 249 +;
#X text 453 277 <= integral (INT);
#X text 453 341 <= Ki*INT;
#X obj 261 315 *;
#X obj 292 249 t b f;
#X floatatom 261 343 5 0 0 0 - - -;
#X floatatom 261 279 5 0 0 0 - - -;
#X text 301 277 <= error (e);
#X text 301 341 <= Kp*e;
#X text 355 575 MV(t) = Kp*e+Ki*INT+Kd*DRV;
#X text 87 130 <= error (SP-PV);
#X msg 651 122 0;
#X connect 1 0 5 0;
#X connect 3 0 6 0;
#X connect 4 0 7 0;
#X connect 5 0 47 0;
#X connect 6 0 40 0;
#X connect 6 0 54 0;
#X connect 7 0 25 0;
#X connect 8 0 14 0;
#X connect 9 0 15 0;
#X connect 10 0 16 0;
#X connect 11 0 12 0;
#X connect 12 0 18 0;
#X connect 14 0 10 0;
#X connect 15 0 17 0;
#X connect 16 0 21 0;
#X connect 16 0 23 0;
#X connect 16 0 43 0;
#X connect 16 0 49 0;
#X connect 17 0 10 0;
#X connect 17 1 10 1;
#X connect 18 0 13 0;
#X connect 19 0 11 0;
#X connect 19 1 11 1;
#X connect 20 0 12 0;
#X connect 20 1 12 1;
#X connect 21 0 22 1;
#X connect 21 1 22 0;
#X connect 22 0 23 1;
#X connect 23 0 33 0;
#X connect 24 0 26 0;
#X connect 25 0 24 0;
#X connect 25 1 24 1;
#X connect 26 0 20 0;
#X connect 27 0 29 0;
#X connect 27 0 28 0;
#X connect 27 0 30 0;
#X connect 27 0 54 0;
#X connect 28 0 5 0;
#X connect 29 0 6 0;
#X connect 30 0 7 0;
#X connect 33 0 24 0;
#X connect 38 0 43 1;
#X connect 39 0 41 0;
#X connect 40 0 39 0;
#X connect 40 1 39 1;
#X connect 41 0 19 0;
#X connect 42 0 39 0;
#X connect 43 0 42 0;
#X connect 43 0 38 0;
#X connect 46 0 48 0;
#X connect 47 0 46 0;
#X connect 47 1 46 1;
#X connect 48 0 11 0;
#X connect 49 0 46 0;
#X connect 54 0 38 0;
