#N canvas 742 100 869 638 10;
#X obj 233 13 cnv 15 250 250 empty empty Process 5 12 0 12 -257985
-66577 0;
#X obj -18 364 cnv 15 250 250 empty empty Sensor 5 12 0 12 -4034 -66577
0;
#X obj 0 410 r~ process_output;
#X obj -18 13 cnv 15 250 350 empty empty Controller 5 12 0 12 -260097
-262144 0;
#X obj 6 83 hsl 128 15 1000 2000 0 1 empty SP Reference/Setpoint_(1000-2000_Hz)
-2 -8 0 10 -262144 -1 -1 6350 1;
#X obj 46 144 hsl 128 15 0 0.4 0 1 empty Kp Kp -2 -8 0 10 -262144 -1
-1 794 1;
#X obj 66 176 hsl 128 15 0 0.01 0 1 empty Ki Ki -2 -8 0 10 -262144
-1 -1 0 1;
#X obj 87 209 hsl 128 15 0 1 0 1 empty Kd Kd -2 -8 0 10 -262144 -1
-1 0 1;
#X obj 233 265 cnv 15 250 350 empty empty Disturbance 5 12 0 12 -258113
-262144 0;
#X obj 279 574 s~ process_output;
#X obj 292 378 *~ 1e+06;
#X obj 278 521 *~;
#X obj 291 350 cos~;
#X obj 320 412 hsl 128 15 1 0.75 0 1 empty D Factor_(none-full) -2
-8 0 10 -262144 -1 -262144 0 1;
#X obj 729 504 r~ process_output;
#X obj 730 541 output~;
#X obj 25 556 s process_variable;
#X obj 23 110 r process_variable;
#X obj 3 274 s manipulated_variable;
#X obj 281 46 r manipulated_variable;
#X obj 40 527 hsl 128 15 1000 2000 0 0 empty empty Process_Variable_(1000-2000_Hz)
-2 -8 0 10 -262144 -1 -1 6350 1;
#X obj 281 153 spigot;
#X obj 314 125 tgl 15 0 empty C empty 17 7 0 10 -262144 -1 -1 0 1;
#X obj 292 493 clip~ 0 1;
#X obj 281 227 s~ process;
#X obj 277 298 r~ process;
#X text 333 123 <= control on/off;
#N canvas 0 22 450 300 (subpatch) 0;
#X array Process_Variable 100 float 0;
#X coords 0 2000 99 1000 200 140 1;
#X restore 512 473 graph;
#X obj 513 361 r process_variable;
#X obj 513 419 tabwrite Process_Variable;
#X obj 660 389 int;
#X obj 688 389 + 1;
#X obj 660 360 metro 20;
#X obj 291 323 phasor~ 0.5;
#X obj 660 282 loadbang;
#X msg 720 347 \; pd dsp 1;
#X obj 284 198 hsl 128 15 1000 2000 0 1 empty TF Tone_Frequency_(1000-2000_Hz)
-2 -8 0 10 -262144 -1 -1 6350 1;
#X obj 278 547 osc~ 1000;
#X obj -1 438 fiddle~;
#X obj 343 439 swap 1;
#X obj 343 465 /;
#X obj 25 495 mtof;
#X obj 25 467 unpack;
#X obj 513 390 clip 1000 2000;
#X text 593 12 'PID' CONTROLLER;
#X text 100 239 <= the controller;
#X text 492 35 Abstraction for a 'proportional' (P) \, 'integral' (I)
\, 'derivative' (D) controller.;
#X text 489 166 The process variable is the result of measuring the
process output (using a suitable sensor).;
#X text 490 107 The reference/setpoint specifies the desired value
of the process output.;
#X text 489 137 The manipulated variable is the output from the controller
and the input to the process.;
#X obj 281 87 +;
#X obj 314 87 f;
#X obj 347 87 clip 1000 2000;
#X text 294 70 accumulator;
#X obj 716 389 zexy/wrap 100;
#X text 491 64 The inputs are: reference/setpoint \, process variable
\, loop gain (Kp) \, integral gain (Ki) and derivative gain (Kd). The
output is the manipulated variable.;
#X text 488 201 The 'ideal' form of the PID controller is given by
the expression: MV(t) = Kp*e(t)+Ki*INT+Kd*DRV;
#X text 487 232 The parameters Kp \, Ki and Kd may be given as creation
arguments. Good starting values are 0.025 \, 0 \, 0;
#N canvas 154 609 432 171 init 0;
#X obj 195 25 inlet;
#X msg 25 73 1500;
#X obj 25 103 send SP;
#X obj 82 103 send Kp;
#X msg 82 73 0.025;
#X obj 138 103 send Ki;
#X msg 138 73 0;
#X obj 195 103 send Kd;
#X msg 195 73 0;
#X obj 355 103 send D;
#X obj 299 103 send TF;
#X msg 299 73 1500;
#X obj 251 103 send C;
#X msg 251 73 0;
#X msg 355 73 1;
#X connect 0 0 1 0;
#X connect 0 0 4 0;
#X connect 0 0 6 0;
#X connect 0 0 8 0;
#X connect 0 0 11 0;
#X connect 0 0 14 0;
#X connect 0 0 13 0;
#X connect 1 0 2 0;
#X connect 4 0 3 0;
#X connect 6 0 5 0;
#X connect 8 0 7 0;
#X connect 11 0 10 0;
#X connect 13 0 12 0;
#X connect 14 0 9 0;
#X restore 732 316 pd init;
#X obj 731 283 bng 15 250 50 0 empty empty empty 17 7 0 10 -262144
-1 -1;
#X text 750 281 <= reset;
#X obj 3 240 pid-controller;
#X connect 2 0 38 0;
#X connect 4 0 61 0;
#X connect 5 0 61 2;
#X connect 6 0 61 3;
#X connect 7 0 61 4;
#X connect 10 0 23 0;
#X connect 11 0 37 0;
#X connect 12 0 10 0;
#X connect 13 0 23 1;
#X connect 13 0 39 0;
#X connect 14 0 15 0;
#X connect 14 0 15 1;
#X connect 17 0 61 1;
#X connect 19 0 50 0;
#X connect 21 0 36 0;
#X connect 22 0 21 1;
#X connect 23 0 11 1;
#X connect 25 0 11 0;
#X connect 28 0 43 0;
#X connect 30 0 31 0;
#X connect 30 0 29 1;
#X connect 31 0 54 0;
#X connect 32 0 30 0;
#X connect 33 0 12 0;
#X connect 34 0 32 0;
#X connect 34 0 35 0;
#X connect 34 0 58 0;
#X connect 36 0 24 0;
#X connect 37 0 9 0;
#X connect 38 2 42 0;
#X connect 39 0 40 0;
#X connect 39 1 40 1;
#X connect 40 0 23 2;
#X connect 41 0 20 0;
#X connect 41 0 16 0;
#X connect 42 0 41 0;
#X connect 43 0 29 0;
#X connect 50 0 21 0;
#X connect 50 0 51 0;
#X connect 51 0 52 0;
#X connect 52 0 50 1;
#X connect 54 0 30 1;
#X connect 59 0 58 0;
#X connect 61 0 18 0;
